<?xml version="1.0" encoding="iso-8859-1"?>
<!-- Generator: Adobe Illustrator 25.0.0, SVG Export Plug-In . SVG Version: 6.00 Build 0)  -->
<svg version="1.1" baseProfile="basic" id="Layer_1"
	 xmlns="http://www.w3.org/2000/svg" xmlns:xlink="http://www.w3.org/1999/xlink" x="0px" y="0px" viewBox="0 0 64 64"
	 xml:space="preserve">
<path d="M49.414,14.586c0.781,0.781,0.781,2.047,0,2.828l-32,32C17.023,49.805,16.512,50,16,50s-1.023-0.195-1.414-0.586
	c-0.781-0.781-0.781-2.047,0-2.828l32-32C47.367,13.805,48.633,13.805,49.414,14.586z"/>
<path d="M49.414,49.414c-0.781,0.781-2.047,0.781-2.828,0l-32-32c-0.781-0.781-0.781-2.047,0-2.828C14.977,14.195,15.488,14,16,14
	s1.023,0.195,1.414,0.586l32,32C50.195,47.367,50.195,48.633,49.414,49.414z"/>
</svg>